# xmcd
#
# Track frame offsets: 
#        150
#        10176
#        20979
#        29922
#        39299
#        52504
#        62313
#        71284
#        82331
#        95442
#        107188
#        119995
#        132234
#        145555
#        156537
#        168117
#        178952
#        191788
#        202857
#        215131
#        226835
#        235606
#        245466
#        257005
#        267278
#
# Disc length: 3680 seconds
#
# Revision: 0
# Processed by: cddbd v1.5.2PL0 Copyright (c) Steve Scherf et al.
# Submitted via: ExactAudioCopy v1.0b1
#
DISCID=650e5e19
DTITLE=Various Artist - Country Bullets - Disc 1
DYEAR=2012
DGENRE=Country
TTITLE0=Porter Wagoner - Your Old Love Letters
TTITLE1=Roy Drusky - I'd Rather Loan You Out
TTITLE2=Skeeter Davis - Optomistic
TTITLE3=Don Winters - Too Many Times
TTITLE4=Cowboy Copas - Signed Sealed And Delivered
TTITLE5=Skeeter Davis - The Hand Your Holding Now
TTITLE6=Lewis Pruitt - Crazy Bullfrog
TTITLE7=Floyd Cramer - Last Date
TTITLE8=Carl Smith - Kisses Never Lie
TTITLE9=Hank Snow - The Restless One
TTITLE10=Jim Nesbitt - Please Mr Kennedy
TTITLE11=Flatt And Scruggs - Polka On Banjo
TTITLE12=The Louvin Brothers - I Love You Best Of All
TTITLE13=Cowboy Copas - Sunny Tennessee
TTITLE14=Hank Thompson - Hangover Tavern
TTITLE15=Hank Locklin - From Here To You
TTITLE16=Ray Price - The Twenty Fourth Hour
TTITLE17=Johnny Cash - Oh Lonesome Me
TTITLE18=George Hamilton 4 - To You And Yours
TTITLE19=Ernest Tubb - Through That Door
TTITLE20=Roger Miller - You Don't Want My Love 
TTITLE21=Rose Maddox - Kissing My Pillow 
TTITLE22=Hank Locklin - One Step Ahead Of MY Past
TTITLE23=Hank Locklin - Your The Reason
TTITLE24=Rusty And Doug Kershaw - Diggy Liggy Lo
EXTD=
EXTT0=
EXTT1=
EXTT2=
EXTT3=
EXTT4=
EXTT5=
EXTT6=
EXTT7=
EXTT8=
EXTT9=
EXTT10=
EXTT11=
EXTT12=
EXTT13=
EXTT14=
EXTT15=
EXTT16=
EXTT17=
EXTT18=
EXTT19=
EXTT20=
EXTT21=
EXTT22=
EXTT23=
EXTT24=
PLAYORDER=
